<svg viewBox="0 0 238 44">
    <title>Apollo Ship Logo</title>
    <g id="Apollo-Ship-Logo" transform="translate(1.000000, 1.000000)">
        
        <path d="M87.2304688,34 L89.7617188,34 L80.2871094,8.63476562 L77.8964844,8.63476562 L68.4042969,34 L70.953125,34 L73.765625,26.2304688 L84.4179688,26.2304688 L87.2304688,34 Z M79.0390625,11.6054688 L79.1445312,11.6054688 L83.6972656,24.15625 L74.4863281,24.15625 L79.0390625,11.6054688 Z M101.082031,14.8574219 C98.0761719,14.8574219 95.5273438,16.5800781 94.5253906,18.9882812 L94.4726562,18.9882812 L94.4726562,15.0683594 L92.2753906,15.0683594 L92.2753906,40.2753906 L94.5957031,40.2753906 L94.5957031,30.0976562 L94.6484375,30.0976562 C95.703125,32.5585938 98.0761719,34.2109375 101.117188,34.2109375 C105.880859,34.2109375 109.150391,30.3085938 109.150391,24.5253906 C109.150391,18.7597656 105.863281,14.8574219 101.082031,14.8574219 L101.082031,14.8574219 Z M100.677734,32.1191406 C97.0742188,32.1191406 94.578125,29.0429688 94.578125,24.5253906 C94.578125,20.0429688 97.0742188,16.9316406 100.677734,16.9316406 C104.333984,16.9316406 106.777344,19.9902344 106.777344,24.5429688 C106.777344,29.0957031 104.333984,32.1191406 100.677734,32.1191406 L100.677734,32.1191406 Z M120.03125,34.2109375 C125.234375,34.2109375 128.644531,30.4316406 128.644531,24.5253906 C128.644531,18.6191406 125.234375,14.8574219 120.03125,14.8574219 C114.828125,14.8574219 111.435547,18.6191406 111.435547,24.5253906 C111.435547,30.4316406 114.828125,34.2109375 120.03125,34.2109375 L120.03125,34.2109375 Z M120.03125,32.1191406 C116.199219,32.1191406 113.808594,29.2539062 113.808594,24.5253906 C113.808594,19.8144531 116.199219,16.9316406 120.03125,16.9316406 C123.880859,16.9316406 126.271484,19.796875 126.271484,24.5253906 C126.271484,29.2539062 123.880859,32.1191406 120.03125,32.1191406 L120.03125,32.1191406 Z M132.054688,34 L134.375,34 L134.375,7.52734375 L132.054688,7.52734375 L132.054688,34 Z M138.910156,34 L141.230469,34 L141.230469,7.52734375 L138.910156,7.52734375 L138.910156,34 Z M153.236328,34.2109375 C158.439453,34.2109375 161.849609,30.4316406 161.849609,24.5253906 C161.849609,18.6191406 158.439453,14.8574219 153.236328,14.8574219 C148.033203,14.8574219 144.640625,18.6191406 144.640625,24.5253906 C144.640625,30.4316406 148.033203,34.2109375 153.236328,34.2109375 L153.236328,34.2109375 Z M153.236328,32.1191406 C149.404297,32.1191406 147.013672,29.2539062 147.013672,24.5253906 C147.013672,19.8144531 149.404297,16.9316406 153.236328,16.9316406 C157.085938,16.9316406 159.476562,19.796875 159.476562,24.5253906 C159.476562,29.2539062 157.085938,32.1191406 153.236328,32.1191406 L153.236328,32.1191406 Z M164.152344,26.7753906 C164.310547,31.5390625 168.195312,34.4394531 174.294922,34.4394531 C180.587891,34.4394531 184.578125,31.328125 184.578125,26.40625 C184.578125,22.5390625 182.363281,20.359375 177.283203,19.2695312 L174.207031,18.6191406 C171.289062,17.9511719 170.058594,17.0722656 170.058594,15.5078125 C170.058594,13.6269531 171.816406,12.3789062 174.435547,12.3789062 C177.089844,12.3789062 178.970703,13.6796875 179.146484,15.8242188 L184.121094,15.8242188 C184.033203,11.2363281 180.324219,8.1953125 174.417969,8.1953125 C168.757812,8.1953125 164.714844,11.2890625 164.714844,15.9648438 C164.714844,19.6738281 167.017578,22.046875 171.693359,23.0488281 L174.998047,23.7695312 C178.056641,24.4550781 179.269531,25.3691406 179.269531,27.0214844 C179.269531,28.8847656 177.335938,30.2382812 174.505859,30.2382812 C171.693359,30.2382812 169.513672,28.8671875 169.267578,26.7753906 L164.152344,26.7753906 Z M187.601562,34 L192.734375,34 L192.734375,23.0136719 C192.734375,20.4121094 194.228516,18.6367188 196.759766,18.6367188 C199.203125,18.6367188 200.46875,20.1660156 200.46875,22.6972656 L200.46875,34 L205.601562,34 L205.601562,21.625 C205.601562,17.1425781 203.123047,14.3652344 198.833984,14.3652344 C195.880859,14.3652344 193.841797,15.6660156 192.751953,18.109375 L192.646484,18.109375 L192.646484,7.421875 L187.601562,7.421875 L187.601562,34 Z M209.082031,34 L214.214844,34 L214.214844,14.6464844 L209.082031,14.6464844 L209.082031,34 Z M211.648438,12.5371094 C213.177734,12.5371094 214.425781,11.3769531 214.425781,9.84765625 C214.425781,8.31835938 213.177734,7.17578125 211.648438,7.17578125 C210.136719,7.17578125 208.888672,8.31835938 208.888672,9.84765625 C208.888672,11.3769531 210.136719,12.5371094 211.648438,12.5371094 L211.648438,12.5371094 Z M228.962891,14.4179688 C226.238281,14.4179688 223.970703,15.7714844 222.951172,17.9511719 L222.845703,17.9511719 L222.845703,14.6464844 L217.783203,14.6464844 L217.783203,40.328125 L222.916016,40.328125 L222.916016,30.7480469 L223.021484,30.7480469 C224.076172,32.9453125 226.238281,34.2285156 229.033203,34.2285156 C233.884766,34.2285156 236.908203,30.4667969 236.908203,24.3144531 C236.908203,18.1621094 233.867188,14.4179688 228.962891,14.4179688 L228.962891,14.4179688 Z M227.257812,30.0800781 C224.638672,30.0800781 222.898438,27.8125 222.898438,24.3320312 C222.898438,20.8691406 224.638672,18.5664062 227.257812,18.5664062 C229.912109,18.5664062 231.652344,20.8339844 231.652344,24.3144531 C231.652344,27.8300781 229.912109,30.0800781 227.257812,30.0800781 L227.257812,30.0800781 Z" id="ApolloShip" fill="#000000"></path>
    </g>
</svg>
