<svg>
	<defs>
		<g id="add" viewBow="0 0 24 24">
			<polygon points="20 11.2 20 12.8 12.8 12.8 12.8 20 11.2 20 11.2 12.8 4 12.8 4 11.2 11.2 11.2 11.2 4 12.8 4 12.8 11.2"></polygon>
		</g>

		<g id="plane" viewBox="0 0 16 16">
			<path d="M13.8346,3.2974 L4.1946,12.9374 L3.0634,11.8062 L12.7034,2.1662 C13.0154,1.8534 13.5218,1.8534 13.8346,2.1662 C14.1474,2.4782 14.1474,2.9846 13.8346,3.2974 L13.8346,3.2974 Z M13.3314,13.3782 C13.5322,13.8654 13.1738,14.4006 12.6466,14.4006 L12.641,14.4006 C12.341,14.4006 12.0698,14.219 11.9562,13.9406 L10.065,9.3302 L11.1978,8.1966 L13.3314,13.3782 Z M2.0586,4.0342 C1.781,3.9206 1.6002,3.6502 1.6002,3.3494 C1.6002,2.8222 2.1354,2.4638 2.6234,2.6654 L7.8042,4.8022 L6.6722,5.9342 L2.0586,4.0342 Z M15.5314,1.6006 L14.4002,0.4686 C13.7754,-0.1562 12.7626,-0.1562 12.1378,0.4686 L8.9346,3.6726 L3.4338,1.4118 C1.797,0.739 0.0002,1.9422 0.0002,3.7126 C0.0002,4.3606 0.3914,4.9454 0.9914,5.1918 L5.541,7.0654 L2.497,10.1094 C2.185,10.4214 1.6786,10.4214 1.3658,10.1094 L1.3658,10.1094 C1.0538,9.7966 0.5474,9.7966 0.2346,10.1094 L0.2346,10.1094 C-0.0782,10.4214 -0.0782,10.9278 0.2346,11.2406 C3.3698,14.3758 4.0338,15.0398 4.7602,15.7662 C5.0722,16.0782 5.5794,16.0782 5.8914,15.7662 L5.8914,15.7662 C6.2042,15.4534 6.2042,14.947 5.8914,14.635 L5.8914,14.635 C5.5794,14.3222 5.5794,13.8158 5.8914,13.503 L8.9354,10.4598 L10.809,15.0094 C11.0554,15.6094 11.6394,16.0006 12.2882,16.0006 C14.0578,16.0006 15.2618,14.2038 14.589,12.567 L12.3282,7.0662 L15.5314,3.863 C16.1562,3.2382 16.1562,2.2254 15.5314,1.6006 L15.5314,1.6006 Z"></path>
		</g>

		<g id="fab-product" viewBox="0 0 24 24">
            <path d="M7.18218212,8.01611831 L7.18218212,8.01611831 C7.18218212,7.55541645 7.55606557,7.1815135 8.01674339,7.1815135 C8.47742121,7.1815135 8.85130465,7.55541645 8.85130465,8.01611831 C8.85130465,8.47682016 8.47742121,8.85072311 8.01674339,8.85072311 C7.55606557,8.85072311 7.18218212,8.47682016 7.18218212,8.01611831 L7.18218212,8.01611831 Z M13.0199382,17.7409335 L5.79180304,10.5124213 C5.71335428,10.4339684 5.6699571,10.3279736 5.6699571,10.2169712 L5.6699571,6.5038144 C5.6699571,6.04227795 6.04300599,5.668375 6.50451837,5.668375 L10.2174815,5.668375 C10.3284781,5.668375 10.4344674,5.71260905 10.5129161,5.7910619 L17.7410513,13.0195741 C18.0665302,13.3459046 18.0665302,13.8742094 17.7410513,14.1997053 L14.2000078,17.7409335 C13.8745289,18.0664293 13.3462516,18.0664293 13.0199382,17.7409335 L13.0199382,17.7409335 Z M16.7470888,9.66529739 L16.7470888,9.66529739 C16.6085516,9.52591839 11.1872416,4.1051602 11.3266134,4.2437046 C11.1697159,4.0876335 10.9577373,4 10.7365786,4 L5.6699571,4 C4.7477669,4 4,4.7469713 4,5.668375 L4,10.7360954 C4,10.9572656 4.08846349,11.1692552 4.24452645,11.3261609 L12.4299034,19.5111302 C13.0816957,20.1629566 14.1382503,20.1629566 14.7900426,19.5111302 L14.7900426,19.5111302 C14.9385945,19.3625706 19.5637331,14.7380254 19.5111557,14.7897709 C20.1629481,14.1379445 20.1629481,13.0813348 19.5111557,12.4295085 L16.7470888,9.66529739 Z" id="tag_round-[#1174]"></path>
        </g>

		<g id="fab-plane" viewBox="0 0 24 24">
            <path d="M17.8346,7.2974 L8.1946,16.9374 L7.0634,15.8062 L16.7034,6.1662 C17.0154,5.8534 17.5218,5.8534 17.8346,6.1662 C18.1474,6.4782 18.1474,6.9846 17.8346,7.2974 L17.8346,7.2974 Z M17.3314,17.3782 C17.5322,17.8654 17.1738,18.4006 16.6466,18.4006 L16.641,18.4006 C16.341,18.4006 16.0698,18.219 15.9562,17.9406 L14.065,13.3302 L15.1978,12.1966 L17.3314,17.3782 Z M6.0586,8.0342 C5.781,7.9206 5.6002,7.6502 5.6002,7.3494 C5.6002,6.8222 6.1354,6.4638 6.6234,6.6654 L11.8042,8.8022 L10.6722,9.9342 L6.0586,8.0342 Z M19.5314,5.6006 L18.4002,4.4686 C17.7754,3.8438 16.7626,3.8438 16.1378,4.4686 L12.9346,7.6726 L7.4338,5.4118 C5.797,4.739 4.0002,5.9422 4.0002,7.7126 C4.0002,8.3606 4.3914,8.9454 4.9914,9.1918 L9.541,11.0654 L6.497,14.1094 C6.185,14.4214 5.6786,14.4214 5.3658,14.1094 L5.3658,14.1094 C5.0538,13.7966 4.5474,13.7966 4.2346,14.1094 L4.2346,14.1094 C3.9218,14.4214 3.9218,14.9278 4.2346,15.2406 C7.3698,18.3758 8.0338,19.0398 8.7602,19.7662 C9.0722,20.0782 9.5794,20.0782 9.8914,19.7662 L9.8914,19.7662 C10.2042,19.4534 10.2042,18.947 9.8914,18.635 L9.8914,18.635 C9.5794,18.3222 9.5794,17.8158 9.8914,17.503 L12.9354,14.4598 L14.809,19.0094 C15.0554,19.6094 15.6394,20.0006 16.2882,20.0006 C18.0578,20.0006 19.2618,18.2038 18.589,16.567 L16.3282,11.0662 L19.5314,7.863 C20.1562,7.2382 20.1562,6.2254 19.5314,5.6006 L19.5314,5.6006 Z" id="airplane_mode-[#1406]"></path>
        </g>

		<g id="logo" viewBox="0 0 32 32">
			<path class="path1" d="M24.081 24.081c-5.022 5.022-13.595 4.384-17.717-1.918-2.475-3.787-2.384-8.866 0.183-12.594 2.645-3.838 6.958-5.406 11.029-4.841l-6.425 6.423c-0.891 0.894-0.891 2.341 0 3.232 0.894 0.894 2.341 0.894 3.232 0l7.918-7.918c1.289 0.853 2.382 1.945 3.234 3.234l-7.918 7.918c-0.894 0.891-0.894 2.338 0 3.232v0c0.891 0.891 2.338 0.891 3.232 0l6.423-6.425c0.475 3.429-0.56 7.026-3.191 9.657zM27.313 4.687c-6.247-6.249-16.379-6.249-22.626 0-6.249 6.247-6.249 16.379 0 22.626 6.247 6.249 16.379 6.249 22.626 0 6.249-6.247 6.249-16.379 0-22.626z"></path>
		</g>

		<g id="arrow" viewBox="0 0 24 24">
			<path d="M11.7175144,16.131728 L12.0710678,16.4852814 L12.4246212,16.131728 L13.131728,15.4246212 L13.4852814,15.0710678 L13.131728,14.7175144 L12.7781746,14.363961 L7.12132034,8.70710678 L6.76776695,8.35355339 L6.41421356,8 L6.06066017,8.35355339 L5.35355339,9.06066017 L5,9.41421356 L5.35355339,9.76776695 L5.70710678,10.1213203 L11.363961,15.7781746 L11.7175144,16.131728 Z M6.41421356,9.41421356 L6.06066017,9.06066017 L6.06066017,9.76776695 L6.76776695,9.06066017 L6.06066017,9.06066017 L6.41421356,9.41421356 L12.0710678,15.0710678 L12.4246212,15.4246212 L12.4246212,14.7175144 L11.7175144,15.4246212 L12.4246212,15.4246212 L12.0710678,15.0710678 L6.41421356,9.41421356 Z M19.131728,9.76776695 L19.4852814,9.41421356 L19.131728,9.06066017 L18.4246212,8.35355339 L18.0710678,8 L17.7175144,8.35355339 L17.363961,8.70710678 L11.8824515,14.1886163 L11.7071068,14.363961 L11.3535534,14.7175144 L11,15.0710678 L11.3535534,15.4246212 L12.0606602,16.131728 L12.4142136,16.4852814 L12.767767,16.131728 L12.7881158,16.1113792 L13.1213203,15.7781746 L18.7781746,10.1213203 L19.131728,9.76776695 Z M12.4142136,15.0710678 L12.081009,15.4042724 L12.0606602,15.4246212 L12.4142136,15.7781746 L12.767767,15.4246212 L12.0606602,14.7175144 L12.0606602,15.4246212 L12.4142136,15.0710678 L12.5895583,14.8957231 L18.0710678,9.41421356 L18.4246212,9.06066017 L17.7175144,9.06066017 L18.4246212,9.76776695 L18.4246212,9.06066017 L18.0710678,9.41421356 L12.4142136,15.0710678 Z"></path>
		</g>

		<g id="delete" viewBox="0 0 24 24">
			<polygon points="14.4 12 18 15.6 15.6 18 12 14.4 8.4 18 6 15.6 9.6 12 6 8.4 8.4 6 12 9.6 15.6 6 18 8.4"></polygon>
		</g>
	</defs>
</svg>
