<?xml version="1.0" encoding="UTF-8" standalone="no"?>
<svg viewBox="0 0 45 44" version="1.1" xmlns="http://www.w3.org/2000/svg" xmlns:xlink="http://www.w3.org/1999/xlink">
    <!-- Generator: Sketch 39.1 (31720) - http://www.bohemiancoding.com/sketch -->
    <title>logo</title>
    <desc>Created with Sketch.</desc>
    <defs></defs>
    <g id="Page-1" stroke="none" stroke-width="1" fill="none" fill-rule="evenodd" stroke-linecap="round" stroke-linejoin="round">
        <g id="logo" transform="translate(1.000000, 1.000000)" stroke="#777" stroke-width="3">
            <polygon id="Stroke-29" points="9.92307692 33.2075472 33.0769231 33.2075472 33.0769231 23.245283 9.92307692 23.245283"></polygon>
            <path d="M0,42 L4.13461538,42" id="Stroke-31"></path>
            <path d="M19.8461538,42 L24.0000001,42" id="Stroke-32"></path>
            <path d="M43,42 L38.8653846,42" id="Stroke-33"></path>
            <path d="M1.65384615,41.7624039 L9.92307692,26.8190077" id="Stroke-34"></path>
            <path d="M22,39 L22,41.7624039" id="Stroke-35"></path>
            <path d="M33.0769231,26.8190077 L41.3461538,41.7624039" id="Stroke-36"></path>
            <path d="M27,38.1886792 C27,35.437434 24.658359,33.2075472 21.7692308,33.2075472 C18.8801026,33.2075472 16.5384615,35.437434 16.5384615,38.1886792 L27,38.1886792 L27,38.1886792 Z" id="Stroke-45"></path>
            <polyline id="Stroke-46" points="18.1923077 23.245283 9.92307692 14.9433962 9.92307692 8.30188679 18.1923077 0 24.8076923 0 33.0769231 8.30188679 33.0769231 14.9433962 24.8076923 23.245283"></polyline>
        </g>
    </g>
</svg>
